<mxfile host="Electron" modified="2024-09-09T12:26:19.494Z" agent="Mozilla/5.0 (X11; Linux x86_64) AppleWebKit/537.36 (KHTML, like Gecko) draw.io/24.6.4 Chrome/124.0.6367.207 Electron/30.0.6 Safari/537.36" etag="cai1zcjZmLgYanb4gWYU" version="24.6.4" type="device">
  <diagram name="Seite-1" id="7771qeCNfbbgeOB5lIHr">
    <mxGraphModel dx="1799" dy="1054" grid="1" gridSize="10" guides="1" tooltips="1" connect="1" arrows="1" fold="1" page="1" pageScale="1" pageWidth="1169" pageHeight="827" math="0" shadow="0">
      <root>
        <mxCell id="0" />
        <mxCell id="1" parent="0" />
        <mxCell id="yOqBiGOS0ei2MFOOsA_x-2" value="&lt;h1 style=&quot;margin-top: 0px;&quot;&gt;&lt;span style=&quot;font-weight: 400;&quot;&gt;&lt;font style=&quot;font-size: 25px;&quot;&gt;Deszendenztheorie nach Lamarck&lt;/font&gt;&lt;/span&gt;&lt;br&gt;&lt;/h1&gt;&lt;p&gt;&lt;font style=&quot;font-size: 16px;&quot;&gt;anhaltende Veränderung der Verhältnisse (umwelt)&lt;/font&gt;&lt;/p&gt;" style="text;html=1;whiteSpace=wrap;overflow=hidden;rounded=0;fontFamily=Helvetica;fontSize=12;align=center;strokeWidth=2;fontColor=#B266FF;" vertex="1" parent="1">
          <mxGeometry x="380" width="410" height="80" as="geometry" />
        </mxCell>
        <mxCell id="yOqBiGOS0ei2MFOOsA_x-24" style="rounded=0;orthogonalLoop=1;jettySize=auto;html=1;entryX=0.497;entryY=-0.087;entryDx=0;entryDy=0;entryPerimeter=0;endSize=5;startSize=5;jumpSize=5;strokeWidth=2;fontColor=#B266FF;strokeColor=#B266FF;" edge="1" parent="1" source="yOqBiGOS0ei2MFOOsA_x-4" target="yOqBiGOS0ei2MFOOsA_x-8">
          <mxGeometry relative="1" as="geometry" />
        </mxCell>
        <mxCell id="yOqBiGOS0ei2MFOOsA_x-27" style="rounded=0;orthogonalLoop=1;jettySize=auto;html=1;entryX=0.001;entryY=-0.154;entryDx=0;entryDy=0;entryPerimeter=0;endSize=5;startSize=5;jumpSize=5;strokeWidth=2;fontColor=#B266FF;strokeColor=#B266FF;" edge="1" parent="1" source="yOqBiGOS0ei2MFOOsA_x-4" target="yOqBiGOS0ei2MFOOsA_x-9">
          <mxGeometry relative="1" as="geometry" />
        </mxCell>
        <mxCell id="yOqBiGOS0ei2MFOOsA_x-28" style="rounded=0;orthogonalLoop=1;jettySize=auto;html=1;entryX=1.002;entryY=0.128;entryDx=0;entryDy=0;entryPerimeter=0;strokeWidth=2;startSize=5;endSize=5;jumpSize=5;fontColor=#B266FF;strokeColor=#B266FF;" edge="1" parent="1" source="yOqBiGOS0ei2MFOOsA_x-4" target="yOqBiGOS0ei2MFOOsA_x-6">
          <mxGeometry relative="1" as="geometry">
            <mxPoint x="385" y="199" as="targetPoint" />
          </mxGeometry>
        </mxCell>
        <mxCell id="yOqBiGOS0ei2MFOOsA_x-4" value="&lt;font style=&quot;font-size: 16px;&quot;&gt;Veränderung der Bedürfnisse&lt;/font&gt;" style="text;html=1;align=center;verticalAlign=middle;resizable=0;points=[];autosize=1;strokeWidth=2;fontColor=#B266FF;" vertex="1" parent="1">
          <mxGeometry x="470" y="130" width="230" height="30" as="geometry" />
        </mxCell>
        <mxCell id="yOqBiGOS0ei2MFOOsA_x-5" style="rounded=0;orthogonalLoop=1;jettySize=auto;html=1;entryX=0.497;entryY=-0.069;entryDx=0;entryDy=0;entryPerimeter=0;strokeWidth=2;startSize=5;endSize=5;jumpSize=5;fontColor=#B266FF;strokeColor=#B266FF;" edge="1" parent="1" source="yOqBiGOS0ei2MFOOsA_x-2" target="yOqBiGOS0ei2MFOOsA_x-4">
          <mxGeometry relative="1" as="geometry" />
        </mxCell>
        <mxCell id="yOqBiGOS0ei2MFOOsA_x-31" style="rounded=0;orthogonalLoop=1;jettySize=auto;html=1;entryX=0.5;entryY=0.333;entryDx=0;entryDy=0;entryPerimeter=0;strokeWidth=2;startSize=5;endSize=5;jumpSize=5;fontColor=#B266FF;strokeColor=#B266FF;" edge="1" parent="1" source="yOqBiGOS0ei2MFOOsA_x-6" target="yOqBiGOS0ei2MFOOsA_x-7">
          <mxGeometry relative="1" as="geometry" />
        </mxCell>
        <mxCell id="yOqBiGOS0ei2MFOOsA_x-6" value="&lt;font style=&quot;font-size: 16px;&quot;&gt;Größerer Gebrauch&lt;/font&gt;&lt;div&gt;&lt;font style=&quot;font-size: 16px;&quot;&gt;eines Organes&lt;/font&gt;&lt;/div&gt;" style="text;html=1;align=center;verticalAlign=middle;resizable=0;points=[];autosize=1;fontFamily=Helvetica;fontSize=12;strokeWidth=2;fontColor=#B266FF;" vertex="1" parent="1">
          <mxGeometry x="220" y="200" width="160" height="50" as="geometry" />
        </mxCell>
        <mxCell id="yOqBiGOS0ei2MFOOsA_x-7" value="&lt;font style=&quot;font-size: 16px;&quot;&gt;Vergrößerung des Organes&lt;/font&gt;" style="text;html=1;align=center;verticalAlign=middle;resizable=0;points=[];autosize=1;strokeWidth=2;fontColor=#B266FF;" vertex="1" parent="1">
          <mxGeometry x="190" y="300" width="220" height="30" as="geometry" />
        </mxCell>
        <mxCell id="yOqBiGOS0ei2MFOOsA_x-29" style="rounded=0;orthogonalLoop=1;jettySize=auto;html=1;entryX=0.502;entryY=0.046;entryDx=0;entryDy=0;entryPerimeter=0;strokeWidth=2;startSize=5;endSize=5;jumpSize=5;fontColor=#B266FF;strokeColor=#B266FF;" edge="1" parent="1" source="yOqBiGOS0ei2MFOOsA_x-8" target="yOqBiGOS0ei2MFOOsA_x-10">
          <mxGeometry relative="1" as="geometry" />
        </mxCell>
        <mxCell id="yOqBiGOS0ei2MFOOsA_x-8" value="&lt;font style=&quot;font-size: 16px;&quot;&gt;Entwicklung eines neuen Organes&lt;/font&gt;" style="text;html=1;align=center;verticalAlign=middle;resizable=0;points=[];autosize=1;strokeWidth=2;fontColor=#B266FF;" vertex="1" parent="1">
          <mxGeometry x="450" y="200" width="270" height="30" as="geometry" />
        </mxCell>
        <mxCell id="yOqBiGOS0ei2MFOOsA_x-30" style="rounded=0;orthogonalLoop=1;jettySize=auto;html=1;entryX=0.5;entryY=0;entryDx=0;entryDy=0;entryPerimeter=0;strokeWidth=2;startSize=5;endSize=5;jumpSize=5;fontColor=#B266FF;strokeColor=#B266FF;" edge="1" parent="1" source="yOqBiGOS0ei2MFOOsA_x-9" target="yOqBiGOS0ei2MFOOsA_x-26">
          <mxGeometry relative="1" as="geometry" />
        </mxCell>
        <mxCell id="yOqBiGOS0ei2MFOOsA_x-9" value="&lt;font style=&quot;font-size: 16px;&quot;&gt;Nichtgebrauch eines Organes&lt;/font&gt;" style="text;html=1;align=center;verticalAlign=middle;resizable=0;points=[];autosize=1;strokeWidth=2;fontColor=#B266FF;" vertex="1" parent="1">
          <mxGeometry x="790" y="200" width="240" height="30" as="geometry" />
        </mxCell>
        <mxCell id="yOqBiGOS0ei2MFOOsA_x-10" value="&lt;font style=&quot;font-size: 16px;&quot;&gt;Vergrößerung&lt;/font&gt;" style="text;html=1;align=center;verticalAlign=middle;resizable=0;points=[];autosize=1;strokeWidth=2;fontColor=#B266FF;" vertex="1" parent="1">
          <mxGeometry x="525" y="300" width="120" height="30" as="geometry" />
        </mxCell>
        <mxCell id="yOqBiGOS0ei2MFOOsA_x-12" value="&lt;font style=&quot;font-size: 16px;&quot;&gt;Weitergabe an Nachkommen, Wenn beide Elternteiledas veränderte Organ besitzen bzw. nicht mehr besitzen&lt;/font&gt;" style="text;html=1;align=center;verticalAlign=middle;resizable=0;points=[];autosize=1;strokeWidth=2;fontColor=#B266FF;" vertex="1" parent="1">
          <mxGeometry x="185" y="400" width="800" height="30" as="geometry" />
        </mxCell>
        <mxCell id="yOqBiGOS0ei2MFOOsA_x-26" value="&lt;font style=&quot;font-size: 16px;&quot;&gt;Verkümmerung oder&lt;/font&gt;&lt;div style=&quot;font-size: 16px;&quot;&gt;&lt;font style=&quot;font-size: 16px;&quot;&gt;Verschwienden des Organes&lt;/font&gt;&lt;/div&gt;" style="text;html=1;align=center;verticalAlign=middle;resizable=0;points=[];autosize=1;strokeWidth=2;fontColor=#B266FF;" vertex="1" parent="1">
          <mxGeometry x="795" y="290" width="230" height="50" as="geometry" />
        </mxCell>
        <mxCell id="yOqBiGOS0ei2MFOOsA_x-32" style="rounded=0;orthogonalLoop=1;jettySize=auto;html=1;strokeWidth=2;startSize=5;endSize=5;jumpSize=5;fontColor=#B266FF;strokeColor=#B266FF;" edge="1" parent="1" source="yOqBiGOS0ei2MFOOsA_x-7">
          <mxGeometry relative="1" as="geometry">
            <mxPoint x="300" y="395" as="targetPoint" />
          </mxGeometry>
        </mxCell>
        <mxCell id="yOqBiGOS0ei2MFOOsA_x-34" style="rounded=0;orthogonalLoop=1;jettySize=auto;html=1;entryX=0.5;entryY=0.08;entryDx=0;entryDy=0;entryPerimeter=0;strokeWidth=2;startSize=5;endSize=5;jumpSize=5;fontColor=#B266FF;strokeColor=#B266FF;" edge="1" parent="1" source="yOqBiGOS0ei2MFOOsA_x-10" target="yOqBiGOS0ei2MFOOsA_x-12">
          <mxGeometry relative="1" as="geometry" />
        </mxCell>
        <mxCell id="yOqBiGOS0ei2MFOOsA_x-36" style="rounded=0;orthogonalLoop=1;jettySize=auto;html=1;entryX=0.905;entryY=-0.094;entryDx=0;entryDy=0;entryPerimeter=0;strokeWidth=2;jumpSize=5;startSize=5;endSize=5;exitX=0.495;exitY=1.054;exitDx=0;exitDy=0;exitPerimeter=0;fontColor=#B266FF;strokeColor=#B266FF;" edge="1" parent="1" source="yOqBiGOS0ei2MFOOsA_x-26" target="yOqBiGOS0ei2MFOOsA_x-12">
          <mxGeometry relative="1" as="geometry" />
        </mxCell>
        <mxCell id="yOqBiGOS0ei2MFOOsA_x-38" style="edgeStyle=orthogonalEdgeStyle;rounded=0;orthogonalLoop=1;jettySize=auto;html=1;exitX=0.5;exitY=1;exitDx=0;exitDy=0;fontColor=#B266FF;" edge="1" parent="1" source="yOqBiGOS0ei2MFOOsA_x-2" target="yOqBiGOS0ei2MFOOsA_x-2">
          <mxGeometry relative="1" as="geometry" />
        </mxCell>
      </root>
    </mxGraphModel>
  </diagram>
</mxfile>
